<svg width="24" height="28" viewBox="0 0 24 28" fill="none" xmlns="http://www.w3.org/2000/svg">
<path d="M12.0429 27.3576L2.51451 24.6614L0.391113 0.386047H23.7231L21.5976 24.6577L12.0429 27.3576Z" fill="#B2B3B3"/>
<path d="M5.25898 11.3743L5.52074 14.3515H12.0572V11.3743H5.25898ZM4.73291 5.34821L4.99841 8.32548H12.0572V5.34821H4.73291ZM12.0572 19.1066L12.0444 19.11L8.79139 18.2147L8.58341 15.8402H5.65125L6.06043 20.515L12.0438 22.2079L12.0572 22.2042V19.1066Z" fill="#4D4D4D"/>
<path d="M18.8366 11.3743L19.3638 5.34821H12.047V8.32548H16.1628L15.897 11.3743H12.047V14.3515H15.6438L15.3046 18.2128L12.0469 19.1091V22.2065L18.035 20.515L18.0789 20.012L18.7653 12.1737L18.8366 11.3743Z" fill="#4D4D4D"/>
</svg>
