<svg width="33" height="35" viewBox="0 0 33 35" fill="none" xmlns="http://www.w3.org/2000/svg">
<ellipse cx="16.5" cy="17.745" rx="16.5" ry="16.8183" fill="#B2B3B3"/>
<g clip-path="url(#clip0_53_412)">
<path d="M13.5368 30.6326C15.4883 30.6326 17.0722 28.7966 17.0722 26.5343V22.4359H13.5368C11.5853 22.4359 10.0015 24.272 10.0015 26.5343C10.0015 28.7966 11.5853 30.6326 13.5368 30.6326Z" fill="#4D4D4D"/>
<path d="M10.0015 18.3375C10.0015 16.0753 11.5853 14.2392 13.5368 14.2392H17.0722V22.4359H13.5368C11.5853 22.4359 10.0015 20.5998 10.0015 18.3375Z" fill="#4D4D4D"/>
<path d="M10.002 10.1408C10.002 7.87854 11.5858 6.04248 13.5373 6.04248H17.0726V14.2392H13.5373C11.5858 14.2392 10.002 12.4031 10.002 10.1408Z" fill="#4D4D4D"/>
<path d="M17.0723 6.04248H20.6076C22.5591 6.04248 24.143 7.87854 24.143 10.1408C24.143 12.4031 22.5591 14.2392 20.6076 14.2392H17.0723V6.04248Z" fill="#4D4D4D"/>
<path d="M24.143 18.3375C24.143 20.5998 22.5591 22.4359 20.6076 22.4359C18.6561 22.4359 17.0723 20.5998 17.0723 18.3375C17.0723 16.0753 18.6561 14.2392 20.6076 14.2392C22.5591 14.2392 24.143 16.0753 24.143 18.3375Z" fill="#4D4D4D"/>
</g>
<defs>
<clipPath id="clip0_53_412">
<rect width="14.1442" height="24.5901" fill="white" transform="translate(10 6.04248)"/>
</clipPath>
</defs>
</svg>
