<svg width="23" height="27" viewBox="0 0 23 27" fill="none" xmlns="http://www.w3.org/2000/svg">
<path d="M22.5543 0.444458L20.4996 23.9421L11.2634 26.5559L2.05262 23.9457L0 0.444458H22.5543Z" fill="#B2B3B3"/>
<path d="M7.2107 8.12613H11.138V5.26929H4.17676L4.24317 6.03572L4.92553 13.9084H11.138V11.0516H7.46443L7.2107 8.12613ZM7.83638 15.3369H5.04957L5.43847 19.8226L11.1252 21.4471L11.138 21.4435V18.4711L11.1258 18.4745L8.03405 17.6154L7.83638 15.3369Z" fill="#4D4D4D"/>
<path d="M11.1383 13.9092H14.6971L14.3615 17.6146L11.1382 18.4747V21.4471L17.063 19.8238L17.1064 19.3411L17.7857 11.8193L17.8561 11.0521H11.1383V13.9092ZM11.1383 8.11939V8.12637H18.1191L18.177 7.48423L18.3088 6.03578L18.3778 5.26929H11.1383V8.11948V8.11939Z" fill="#4D4D4D"/>
</svg>
