<svg width="25" height="26" viewBox="0 0 25 26" fill="none" xmlns="http://www.w3.org/2000/svg">
<path d="M0 0.415283H24.793V25.6866H0V0.415283Z" fill="#B2B3B3"/>
<path d="M22.3684 19.5806C22.1977 18.5237 21.5037 17.6363 19.4484 16.8083C18.7345 16.4824 17.9386 16.249 17.7013 15.7117C17.6171 15.3991 17.606 15.2229 17.6592 15.0335C17.8122 14.4192 18.5505 14.2276 19.1358 14.4038C19.5127 14.5293 19.8697 14.8178 20.0847 15.2779C21.0913 14.6306 21.0891 14.635 21.7919 14.1902C21.5347 13.7938 21.3973 13.611 21.2288 13.4415C20.6235 12.7699 19.7987 12.4242 18.4795 12.4506C18.2512 12.4793 18.0206 12.5101 17.7922 12.5387C17.1338 12.7039 16.5063 13.0474 16.1383 13.5076C15.0341 14.7517 15.349 16.9294 16.6925 17.8257C18.0162 18.8121 19.9606 19.0367 20.2089 19.9594C20.4506 21.089 19.3731 21.4545 18.3022 21.3246C17.5129 21.1617 17.0739 20.7631 16.5994 20.0386C15.7259 20.5407 15.7259 20.5407 14.828 21.0538C15.0408 21.5162 15.2647 21.7254 15.6217 22.1261C17.3111 23.8283 21.5392 23.7446 22.2975 21.1683C22.3285 21.0802 22.5325 20.49 22.3684 19.5806ZM13.6329 12.5871H11.4512C11.4512 14.4588 11.4424 16.3173 11.4424 18.189C11.4424 19.3802 11.5045 20.4724 11.3094 20.8071C10.9901 21.4655 10.1631 21.384 9.7862 21.2563C9.40264 21.0691 9.20753 20.8027 8.98138 20.4262C8.9193 20.3183 8.87274 20.2346 8.8572 20.228C8.26525 20.5869 7.67547 20.948 7.0835 21.307C7.3784 21.9081 7.81293 22.43 8.36943 22.7691C9.20085 23.2645 10.3183 23.4164 11.4867 23.15C12.2472 22.9298 12.9035 22.474 13.2471 21.7804C13.7438 20.871 13.6373 19.77 13.6329 18.5523C13.644 16.5661 13.6329 14.5799 13.6329 12.5871Z" fill="#4D4D4D"/>
</svg>
