<svg width="133" height="31" viewBox="0 0 133 31" fill="none" xmlns="http://www.w3.org/2000/svg">
<path d="M132.923 13.5485L70 3L106.231 18.3573L132.923 13.5485Z" fill="#096CCA"/>
<path d="M132.923 13.5485L70 3L106.231 18.3573L132.923 13.5485Z" fill="#4D4D4D"/>
<path d="M133 13.5486L106.231 18.3574L96.4614 31.0001L133 13.5486Z" fill="#00ADEF"/>
<path d="M133 13.5486L106.231 18.3574L96.4614 31.0001L133 13.5486Z" fill="#B2B3B3"/>
<path d="M10.9302 31H0V0H11.0205C14.1219 0 16.7917 0.620606 19.0299 1.86182C21.2682 3.09294 22.9895 4.86393 24.1939 7.17481C25.4084 9.48568 26.0156 12.2507 26.0156 15.4697C26.0156 18.6989 25.4084 21.474 24.1939 23.7949C22.9895 26.1159 21.2581 27.897 18.9998 29.1382C16.7516 30.3794 14.0617 31 10.9302 31ZM6.51895 25.3843H10.6592C12.5862 25.3843 14.2072 25.0412 15.522 24.355C16.8469 23.6587 17.8406 22.584 18.503 21.1309C19.1755 19.6676 19.5117 17.7806 19.5117 15.4697C19.5117 13.179 19.1755 11.3071 18.503 9.854C17.8406 8.40088 16.8519 7.33122 15.5371 6.64502C14.2223 5.95882 12.6013 5.61572 10.6742 5.61572H6.51895V25.3843Z" fill="white"/>
<path d="M29.7847 31V0H41.9494C44.288 0 46.2803 0.449056 47.9264 1.34717C49.5724 2.23519 50.827 3.47135 51.6902 5.05566C52.5634 6.62988 53 8.44629 53 10.5049C53 12.5635 52.5584 14.3799 51.6751 15.9541C50.7919 17.5283 49.5122 18.7544 47.836 19.6323C46.1699 20.5103 44.1525 20.9492 41.7838 20.9492H34.0303V15.6968H40.7299C41.9845 15.6968 43.0183 15.4798 43.8313 15.0459C44.6543 14.6019 45.2666 13.9914 45.6681 13.2144C46.0796 12.4272 46.2853 11.5241 46.2853 10.5049C46.2853 9.47559 46.0796 8.57747 45.6681 7.81055C45.2666 7.03353 44.6543 6.43311 43.8313 6.00928C43.0083 5.57536 41.9645 5.3584 40.6998 5.3584H36.3036V31H29.7847Z" fill="white"/>
</svg>
