<svg width="142" height="35" viewBox="0 0 142 35" fill="none" xmlns="http://www.w3.org/2000/svg">
<path d="M11.5489 33H0V0H11.6443C14.9212 0 17.7422 0.660645 20.1071 1.98193C22.472 3.29248 24.2908 5.17773 25.5634 7.6377C26.8466 10.0977 27.4882 13.041 27.4882 16.4678C27.4882 19.9053 26.8466 22.8594 25.5634 25.3301C24.2908 27.8008 22.4614 29.6968 20.0753 31.0181C17.6998 32.3394 14.8576 33 11.5489 33ZM6.88795 27.022H11.2625C13.2987 27.022 15.0114 26.6567 16.4006 25.9263C17.8005 25.1851 18.8504 24.041 19.5503 22.4941C20.2609 20.9365 20.6161 18.9277 20.6161 16.4678C20.6161 14.0293 20.2609 12.0366 19.5503 10.4897C18.8504 8.94287 17.8058 7.8042 16.4165 7.07373C15.0273 6.34326 13.3146 5.97803 11.2784 5.97803H6.88795V27.022Z" fill="black"/>
<path d="M31.4706 33V0H44.3239C46.7949 0 48.9 0.478028 50.6392 1.43408C52.3784 2.3794 53.704 3.69531 54.616 5.38183C55.5387 7.05762 56 8.99121 56 11.1826C56 13.374 55.5334 15.3076 54.6001 16.9834C53.6669 18.6592 52.3148 19.9644 50.5437 20.8989C48.7833 21.8335 46.6517 22.3008 44.1489 22.3008H35.9565V16.7095H43.0354C44.361 16.7095 45.4533 16.4785 46.3123 16.0166C47.1819 15.5439 47.8288 14.894 48.253 14.0669C48.6878 13.229 48.9053 12.2676 48.9053 11.1826C48.9053 10.0869 48.6878 9.13086 48.253 8.31445C47.8288 7.4873 47.1819 6.84814 46.3123 6.39697C45.4427 5.93506 44.3398 5.7041 43.0036 5.7041H38.3586V33H31.4706Z" fill="black"/>
<path d="M141.911 15.0554L69 3L110.982 20.5512L141.911 15.0554Z" fill="#096CCA"/>
<path d="M141.911 15.0554L69 3L110.982 20.5512L141.911 15.0554Z" fill="#096CCA"/>
<path d="M142 15.0554L110.982 20.5512L99.6616 35L142 15.0554Z" fill="#00ADEF"/>
<path d="M142 15.0554L110.982 20.5512L99.6616 35L142 15.0554Z" fill="#00ADEF"/>
</svg>
