<svg width="143" height="32" viewBox="0 0 143 32" fill="none" xmlns="http://www.w3.org/2000/svg">
<path d="M142.911 12.0554L70 0L111.982 17.5512L142.911 12.0554Z" fill="#096CCA"/>
<path d="M142.911 12.0554L70 0L111.982 17.5512L142.911 12.0554Z" fill="#096CCA"/>
<path d="M143 12.0554L111.982 17.5512L100.662 32L143 12.0554Z" fill="#00ADEF"/>
<path d="M143 12.0554L111.982 17.5512L100.662 32L143 12.0554Z" fill="#00ADEF"/>
<path d="M10.9302 32H0V1H11.0205C14.1219 1 16.7917 1.62061 19.0299 2.86182C21.2682 4.09294 22.9895 5.86393 24.1939 8.17481C25.4084 10.4857 26.0156 13.2507 26.0156 16.4697C26.0156 19.6989 25.4084 22.474 24.1939 24.7949C22.9895 27.1159 21.2581 28.897 18.9998 30.1382C16.7516 31.3794 14.0617 32 10.9302 32ZM6.51895 26.3843H10.6592C12.5862 26.3843 14.2072 26.0412 15.522 25.355C16.8469 24.6587 17.8406 23.584 18.503 22.1309C19.1755 20.6676 19.5117 18.7806 19.5117 16.4697C19.5117 14.179 19.1755 12.3071 18.503 10.854C17.8406 9.40088 16.8519 8.33122 15.5371 7.64502C14.2223 6.95882 12.6013 6.61572 10.6742 6.61572H6.51895V26.3843Z" fill="white"/>
<path d="M29.7847 32V1H41.9494C44.288 1 46.2803 1.44906 47.9264 2.34717C49.5724 3.23519 50.827 4.47135 51.6902 6.05566C52.5634 7.62988 53 9.44629 53 11.5049C53 13.5635 52.5584 15.3799 51.6751 16.9541C50.7919 18.5283 49.5122 19.7544 47.836 20.6323C46.1699 21.5103 44.1525 21.9492 41.7838 21.9492H34.0303V16.6968H40.7299C41.9845 16.6968 43.0183 16.4798 43.8313 16.0459C44.6543 15.6019 45.2666 14.9914 45.6681 14.2144C46.0796 13.4272 46.2853 12.5241 46.2853 11.5049C46.2853 10.4756 46.0796 9.57747 45.6681 8.81055C45.2666 8.03353 44.6543 7.43311 43.8313 7.00928C43.0083 6.57536 41.9645 6.3584 40.6998 6.3584H36.3036V32H29.7847Z" fill="white"/>
</svg>
