<svg width="32" height="33" viewBox="0 0 32 33" fill="none" xmlns="http://www.w3.org/2000/svg">
<ellipse cx="15.5547" cy="16.6938" rx="15.5547" ry="15.8548" fill="#B2B3B3"/>
<path d="M24.3691 24.9533C24.2562 24.8749 24.1433 24.7898 24.0349 24.7082C24.0168 24.6945 23.9988 24.681 23.9809 24.6675C23.8531 24.5715 23.7314 24.4816 23.6116 24.4041C23.4068 24.2725 23.1833 24.1668 22.9413 24.0534L22.9228 24.0447C22.6908 23.9361 22.4421 23.8196 22.2062 23.672L22.203 23.6699L22.203 23.6699C21.9374 23.4979 21.6852 23.3025 21.4429 23.1147L21.441 23.1132L21.5942 22.9156L21.4442 23.1156C21.1864 22.9224 20.9231 22.5729 20.7753 22.3231C20.7259 22.2433 20.6945 22.1566 20.6742 22.1006C20.6712 22.0923 20.6685 22.0847 20.6659 22.0779C20.641 22.0107 20.6298 21.9953 20.6245 21.99L20.542 21.9061L20.5542 21.789C20.5658 21.6763 20.6125 21.5814 20.6844 21.5083C20.7512 21.4403 20.83 21.4011 20.8936 21.3762C20.9541 21.3525 21.0178 21.3357 21.0652 21.3232L21.0712 21.3216C21.1245 21.3075 21.1581 21.2982 21.1839 21.288C21.6885 21.0713 22.2594 20.9655 22.9317 20.94C22.8876 20.9113 22.8432 20.8832 22.8 20.8559L22.7931 20.8515C22.7189 20.8046 22.6407 20.7551 22.5852 20.713C22.2138 20.4416 21.8251 20.1626 21.4384 19.9197C21.3585 19.8701 21.2392 19.8217 21.0922 19.7679C21.0641 19.7576 21.0348 19.747 21.0048 19.7362C20.8917 19.6955 20.7692 19.6514 20.6684 19.6057C20.6029 19.5789 20.5129 19.55 20.4012 19.5158C20.3814 19.5097 20.3609 19.5035 20.3399 19.4971C20.2456 19.4684 20.142 19.4369 20.0418 19.4029C19.9195 19.3614 19.7923 19.3131 19.6808 19.2553C19.5757 19.2008 19.4578 19.1247 19.3793 19.0151C19.0452 18.5723 18.813 18.0399 18.5953 17.5407C18.572 17.4872 18.5489 17.4342 18.5258 17.3816L18.525 17.3798L18.525 17.3798C18.4111 17.115 18.2842 16.8444 18.1544 16.5678L18.1328 16.5217C17.9967 16.2315 17.8583 15.9352 17.7342 15.6409C17.6745 15.508 17.6288 15.3819 17.5872 15.2672C17.5814 15.2511 17.5757 15.2353 17.57 15.2197C17.5225 15.0894 17.4774 14.9716 17.4152 14.8502L17.4148 14.8495C16.5848 13.2191 15.3581 11.8562 13.8718 10.8983C13.3838 10.5866 12.8456 10.3021 12.2559 10.1095C12.116 10.0672 11.9548 10.0558 11.7581 10.0468C11.7422 10.0461 11.7259 10.0454 11.7094 10.0447C11.5419 10.0373 11.3498 10.0289 11.1642 9.99088H10.9462H10.9115L10.8782 9.98146C10.7168 9.93585 10.5856 9.8325 10.4912 9.75046C10.446 9.71111 10.4101 9.67799 10.3789 9.64911C10.3326 9.60639 10.2965 9.57296 10.2547 9.54235C9.91706 9.31017 9.5767 9.1527 9.15192 8.97767L9.14072 8.97305L9.14085 8.97279C9.07541 8.94204 8.94701 8.89005 8.82373 8.86121C8.76172 8.84671 8.71207 8.84074 8.67774 8.84164C8.67096 8.84182 8.66575 8.84223 8.66191 8.84267L8.63265 8.86786L8.58759 8.87931L8.5837 8.89511L8.56124 8.92939C8.56049 8.93174 8.55508 8.94938 8.56361 8.99589C8.57393 9.05217 8.59826 9.11506 8.62536 9.17588C8.70142 9.34054 8.79347 9.47432 8.89835 9.61049C8.929 9.65029 8.96242 9.69227 8.99733 9.73613C9.07651 9.8356 9.16339 9.94474 9.24309 10.0599C9.27568 10.1067 9.31065 10.1559 9.347 10.207C9.51897 10.4489 9.72167 10.734 9.84714 11.0104C10.0059 11.3583 10.1206 11.7219 10.228 12.0701C10.2349 12.0927 10.2418 12.1152 10.2487 12.1376C10.3499 12.4661 10.4463 12.7794 10.5715 13.0765L10.5715 13.0766C10.6677 13.305 10.8206 13.5728 10.965 13.788C10.9978 13.8329 11.0361 13.8695 11.0896 13.9209C11.1142 13.9444 11.1419 13.971 11.1738 14.0029C11.2582 14.0872 11.3649 14.2044 11.4214 14.3655C11.4857 14.4968 11.4776 14.6503 11.4635 14.759C11.4464 14.8904 11.4084 15.034 11.3667 15.1673C11.3245 15.3022 11.2756 15.4359 11.2332 15.5488C11.222 15.5788 11.2114 15.6067 11.2016 15.6325C11.1733 15.7075 11.1514 15.7654 11.1378 15.8066C10.8522 16.7243 10.91 18.0117 11.235 18.7944C11.2494 18.8286 11.2631 18.8618 11.2763 18.8939C11.3332 19.0316 11.3822 19.1503 11.4481 19.2539C11.4595 19.2718 11.471 19.2886 11.4827 19.3042C11.4842 19.2903 11.4857 19.2764 11.4872 19.2624C11.5078 19.0712 11.5286 18.8783 11.5542 18.7013C11.5989 18.3921 11.6636 18.0838 11.7861 17.8002C11.8636 17.6083 11.9767 17.4507 12.0826 17.3169C12.1195 17.2702 12.154 17.2281 12.1865 17.1884C12.2544 17.1056 12.3135 17.0334 12.3678 16.9525L12.5012 16.7536L12.7056 16.8783C12.8549 16.9694 12.9039 17.1326 12.9259 17.2081C12.9378 17.2488 12.946 17.2802 12.9527 17.3058C12.9646 17.3512 12.9718 17.3787 12.986 17.4076L12.9896 17.415L12.9928 17.4226C13.0032 17.448 13.0137 17.4735 13.0243 17.499C13.1672 17.8463 13.3166 18.2093 13.485 18.541L13.485 18.5411C13.8646 19.29 14.2883 20.0113 14.7666 20.6602L14.7715 20.6668L14.7714 20.6668C14.9208 20.884 15.1392 21.1298 15.3426 21.3371C15.3631 21.3549 15.3805 21.3675 15.404 21.3846C15.4203 21.3964 15.4395 21.4102 15.4647 21.4295C15.492 21.4503 15.5227 21.4751 15.5537 21.5055H15.7115V21.7555V21.791V22.1511L15.3741 22.0253C15.3574 22.0191 15.341 22.0124 15.3249 22.0055H15.3031L15.2939 21.9915C15.1045 21.9024 14.9549 21.7657 14.8332 21.6432C14.7888 21.5986 14.7489 21.5569 14.7116 21.5179C14.6213 21.4236 14.5463 21.3453 14.4603 21.2797L14.4595 21.2791C13.9234 20.867 13.2695 20.2419 12.8868 19.6267L12.8783 19.6131L12.8717 19.5985C12.8207 19.4869 12.7686 19.377 12.7154 19.2672C12.714 19.2786 12.7126 19.29 12.7112 19.3015C12.7087 19.3215 12.7062 19.3418 12.7037 19.3624C12.6883 19.4894 12.6718 19.6254 12.6458 19.7521C12.5846 20.0502 12.4548 20.3765 12.0773 20.5306C11.6653 20.7027 11.3097 20.5506 11.0607 20.3487C10.818 20.1518 10.6424 19.8836 10.5484 19.7343L10.546 19.7304L10.546 19.7304C9.90985 18.6772 9.74715 16.9439 10.1839 15.5492L10.1841 15.5488C10.2125 15.4583 10.2309 15.3684 10.2519 15.2657C10.2622 15.2151 10.2732 15.1614 10.2863 15.103C10.3139 14.9805 10.3507 14.8412 10.416 14.7106C10.4087 14.7007 10.3996 14.6905 10.3883 14.679C10.3735 14.664 10.3612 14.6528 10.3451 14.6381C10.3348 14.6287 10.323 14.6178 10.3079 14.6036C10.2753 14.573 10.2338 14.5319 10.1964 14.4797C10.1963 14.4795 10.1961 14.4793 10.196 14.4791L10.3993 14.3336C10.2364 14.1087 10.0968 13.8483 9.96875 13.5998L24.3691 24.9533ZM24.3691 24.9533C24.3969 24.9743 24.4178 24.9963 24.451 25.0314C24.467 25.0483 24.4859 25.0683 24.5099 25.0927C24.5738 25.1577 24.6669 25.244 24.8023 25.2931L25.1375 25.4147V25.058V25.0226V24.938L25.0861 24.8707C25.07 24.8497 25.0552 24.8178 25.027 24.7461C25.0255 24.7423 25.024 24.7384 25.0224 24.7344C24.9988 24.674 24.9635 24.5839 24.9073 24.5021L24.8949 24.4842L24.8797 24.4686C24.8189 24.4067 24.7584 24.3483 24.7006 24.2924L24.7005 24.2923C24.6463 24.24 24.5943 24.1898 24.5429 24.1378M24.3691 24.9533L24.5429 24.1378M24.5429 24.1378C24.1904 23.6593 23.7565 23.2442 23.2894 22.9031L23.2894 22.903L23.2852 22.9001C23.1822 22.828 23.052 22.7516 22.9233 22.6763L22.9119 22.6696C22.7831 22.5943 22.6514 22.5172 22.5268 22.4356C22.4071 22.3573 22.3007 22.2792 22.2159 22.2012C22.3436 22.1694 22.4674 22.133 22.5757 22.1011C22.6017 22.0935 22.6267 22.0862 22.6507 22.0792C22.8263 22.0321 22.9961 22.013 23.1878 21.9922L23.197 21.9912C23.3828 21.971 23.5892 21.9486 23.8095 21.8911C24.0029 21.8418 24.195 21.7808 24.3789 21.7223L24.3813 21.7215L24.5556 21.6661V21.4832V21.3768V21.2745L24.4839 21.2016C24.4007 21.1169 24.3272 21.0181 24.241 20.9025C24.2339 20.893 24.2267 20.8834 24.2195 20.8736C24.1285 20.7518 24.0226 20.6122 23.8921 20.4935L23.8921 20.4935L23.8887 20.4905C23.2888 19.9638 22.6271 19.4468 21.939 19.0121C21.7408 18.8824 21.5189 18.7782 21.3088 18.6847C21.2607 18.6633 21.2135 18.6425 21.1671 18.6222C21.0041 18.5506 20.8515 18.4836 20.7094 18.4091L20.7068 18.4078C20.6566 18.3822 20.6029 18.3622 20.5587 18.3464C20.5402 18.3399 20.5238 18.3342 20.5085 18.3289C20.482 18.3197 20.4587 18.3117 20.4333 18.302C20.3956 18.2877 20.3701 18.276 20.353 18.2658C20.3473 18.2624 20.3437 18.2599 20.3418 18.2584L20.3402 18.2562L20.3343 18.2488C20.248 18.1415 20.1764 18.0115 20.1051 17.8608C20.0738 17.7946 20.0439 17.7273 20.0126 17.6571C20.0083 17.6475 20.004 17.6378 19.9996 17.628C19.9642 17.5485 19.9269 17.4655 19.8868 17.3839L19.8868 17.3839L19.8844 17.3792C19.5511 16.7359 19.2279 16.0203 18.9383 15.337L18.9384 15.337L18.9358 15.3313C18.8625 15.1698 18.8007 15.011 18.7368 14.8467C18.7122 14.7834 18.6872 14.7193 18.6612 14.6539C18.5697 14.4242 18.4677 14.1873 18.3292 13.9567C17.1069 11.9048 15.7719 10.6575 13.7394 9.44332L13.7394 9.4433L13.7361 9.44142C13.3093 9.19504 12.8117 9.07815 12.3257 8.964C12.2768 8.95251 12.228 8.94105 12.1795 8.9295L12.156 8.9239L12.1318 8.92291C11.9893 8.91708 11.8464 8.90836 11.7005 8.89946L11.6993 8.89939C11.5727 8.89166 11.4438 8.88379 11.3144 8.87789C11.2675 8.84977 11.2107 8.8041 11.1382 8.73988C11.1248 8.72801 11.1105 8.71517 11.0955 8.70169C11.0232 8.63659 10.9344 8.55677 10.8503 8.50177L10.8503 8.50176L10.8486 8.50069C10.5109 8.28367 9.88783 7.92693 9.27281 7.78528C8.965 7.71438 8.63358 7.69116 8.33335 7.78926C8.02033 7.89153 7.76741 8.11744 7.61901 8.48707C7.41946 8.97653 7.57788 9.44461 7.78152 9.80471C7.88468 9.98712 8.00574 10.1533 8.11386 10.2943C8.15268 10.3449 8.18846 10.3907 8.22121 10.4325C8.28463 10.5135 8.33671 10.58 8.37757 10.6397L8.37749 10.6398L8.38167 10.6455C8.42947 10.7112 8.47801 10.7759 8.52598 10.8398C8.69128 11.0601 8.84978 11.2713 8.94758 11.4848C8.97969 11.5652 9.00174 11.6509 9.02789 11.7559C9.02888 11.7598 9.02988 11.7639 9.03088 11.7679C9.05551 11.8669 9.08435 11.9828 9.12903 12.1002L24.5429 24.1378ZM13.262 18.6541C13.1203 18.3747 12.9919 18.0747 12.872 17.7854V17.7276L12.8566 17.7484C12.8355 17.6972 12.8145 17.6463 12.7938 17.5961C12.783 17.5698 12.7723 17.5438 12.7616 17.5178C12.7361 17.4659 12.7199 17.4045 12.7039 17.344C12.7037 17.3433 12.7036 17.3426 12.7034 17.342C12.7312 17.3052 12.7582 17.2681 12.7831 17.231L12.5864 17.0991C12.5828 17.0965 12.5792 17.094 12.5754 17.0917C12.53 17.1594 12.4791 17.2247 12.4264 17.2899C12.4225 17.2855 12.422 17.2837 12.424 17.2875C12.4245 17.2884 12.4251 17.2896 12.4257 17.2908C12.4078 17.313 12.3896 17.3351 12.3714 17.3574C12.2375 17.5209 12.1001 17.6888 12.0168 17.8966C11.842 18.2992 11.7909 18.7759 11.7368 19.2797C11.7226 19.4128 11.7081 19.5479 11.691 19.6839L13.262 18.6541Z" fill="#4D4D4D" stroke="#4D4D4D" stroke-width="0.5"/>
<path d="M11.8739 12.0268L11.8898 12.0427L11.8739 12.0268M11.8739 12.0268L11.8721 12.025L11.8721 12.025L11.8721 12.025L11.8721 12.025L11.872 12.0251L11.8716 12.0255L11.8701 12.0271L11.8646 12.0325L11.8541 12.0431C11.8105 11.9547 11.7692 11.8663 11.7279 11.778C11.6829 11.6814 11.6378 11.5849 11.5897 11.4884C11.5429 11.4227 11.4889 11.3625 11.4347 11.3021C11.3498 11.2074 11.2643 11.1121 11.2057 10.9945H11.2066V10.994V10.9899C11.2118 10.9887 11.217 10.9874 11.2222 10.9862C11.2244 10.9857 11.2265 10.9852 11.2287 10.9847M11.8739 12.0268C11.8739 12.0268 11.8739 12.0268 11.8739 12.0268M11.8739 12.0268L12.1169 11.4492M11.2287 10.9847C11.2752 11.0774 11.3391 11.1564 11.4075 11.234C11.4224 11.2509 11.4375 11.2678 11.4528 11.2848C11.5071 11.3454 11.5624 11.407 11.61 11.4739L11.6123 11.4771L11.612 11.4773C11.6603 11.5739 11.7054 11.6706 11.7504 11.767L11.7505 11.7672C11.7907 11.8532 11.8306 11.9388 11.8728 12.0244M11.2287 10.9847C11.3555 10.9551 11.4864 10.9358 11.6635 10.9351C11.7021 10.972 11.7489 11.004 11.7941 11.035C11.8064 11.0434 11.8186 11.0517 11.8304 11.0601C11.8902 11.1021 11.9433 11.1447 11.9764 11.2001L11.9763 11.2001L11.9775 11.2017C12.0027 11.2372 12.0189 11.2725 12.0362 11.3101C12.0383 11.3148 12.0405 11.3195 12.0427 11.3243C12.0613 11.3646 12.0822 11.4068 12.1169 11.4492M11.2287 10.9847C11.2285 10.9842 11.2283 10.9838 11.228 10.9833L11.2211 10.9695H11.2057H11.1852C11.3281 10.9339 11.4714 10.91 11.6737 10.91L12.1169 11.4492M11.8728 12.0244L11.8721 12.025L11.8739 12.0268M11.8728 12.0244L11.875 12.0221L11.8752 12.0224C12.033 11.9092 12.1151 11.7282 12.1169 11.4492M11.8728 12.0244C11.8732 12.0252 11.8736 12.026 11.8739 12.0268" fill="#4D4D4D" stroke="#4D4D4D" stroke-width="0.05"/>
</svg>
