<svg width="30" height="31" viewBox="0 0 30 31" fill="none" xmlns="http://www.w3.org/2000/svg">
<ellipse cx="14.7625" cy="15.8864" rx="14.7625" ry="15.0473" fill="#B2B3B3"/>
<path d="M5.16702 15.5081C5.16702 16.9073 6.88603 18.2332 9.52159 19.0555C8.91338 21.7936 9.18369 23.972 10.3748 24.6694C10.6493 24.833 10.9703 24.9105 11.3209 24.9105V23.9504C11.1266 23.9504 10.9703 23.9117 10.8394 23.8385C10.2649 23.5027 10.0157 22.2241 10.21 20.5795C10.2565 20.1748 10.3325 19.7486 10.4254 19.3138C11.2533 19.5205 12.1571 19.6798 13.1075 19.7831C13.6776 20.5795 14.269 21.3028 14.8645 21.9356C13.4876 23.2401 12.1951 23.9548 11.3166 23.9548V24.9148C12.4781 24.9148 13.9986 24.071 15.536 22.6072C17.0735 24.0624 18.594 24.8976 19.7555 24.8976V23.9375C18.8812 23.9375 17.5845 23.2272 16.2076 21.9313C16.7989 21.2985 17.3902 20.5795 17.952 19.7831C18.9065 19.6798 19.8104 19.5205 20.6382 19.3095C20.7353 19.74 20.8071 20.1576 20.8578 20.558C21.0563 22.2026 20.8114 23.4812 20.2412 23.8213C20.1145 23.8988 19.9497 23.9332 19.7555 23.9332V24.8933C20.1102 24.8933 20.4312 24.8158 20.71 24.6522C21.8968 23.9548 22.1629 21.7807 21.5505 19.0512C24.1776 18.2246 25.8882 16.903 25.8882 15.5081C25.8882 14.1089 24.1692 12.7829 21.5336 11.9607C22.1418 9.2226 21.8715 7.04421 20.6804 6.34678C20.4059 6.18318 20.0849 6.10569 19.7301 6.10569C18.5686 6.10569 17.0481 6.9495 15.5107 8.41324C13.9733 6.95811 12.4528 6.12291 11.2913 6.12291C10.9365 6.12291 10.6155 6.2004 10.3367 6.364C9.1499 7.06143 8.88382 9.23552 9.49624 11.965C6.87759 12.7872 5.16702 14.1132 5.16702 15.5081ZM10.6662 18.3796C10.8225 17.8242 11.0168 17.2517 11.2364 16.6791C11.4096 17.0235 11.5912 17.3679 11.7897 17.7123C11.984 18.0567 12.1909 18.3925 12.3979 18.7197C11.7981 18.6293 11.2195 18.5174 10.6662 18.3796ZM12.6006 13.7946C12.9301 13.2135 13.268 12.6624 13.6185 12.1501C14.2478 12.0941 14.8856 12.064 15.5276 12.064C16.1654 12.064 16.8031 12.0941 17.4282 12.1458C17.7788 12.6581 18.1209 13.2048 18.4504 13.7817C18.7714 14.3457 19.0628 14.9183 19.3289 15.4952C19.067 16.0721 18.7714 16.6489 18.4546 17.2129C18.1251 17.7941 17.7872 18.3452 17.4367 18.8575C16.8074 18.9134 16.1696 18.9436 15.5276 18.9436C14.8898 18.9436 14.2521 18.9134 13.627 18.8618C13.2764 18.3495 12.9343 17.8027 12.6048 17.2258C12.2838 16.6619 11.9924 16.0893 11.7263 15.5124C11.9924 14.9355 12.2838 14.3586 12.6006 13.7946ZM11.2364 14.3543C11.0083 13.7774 10.814 13.2005 10.6535 12.6409C11.2068 12.5031 11.7897 12.3869 12.3937 12.2965C12.1867 12.628 11.9797 12.9681 11.7855 13.3168C11.5912 13.6612 11.4096 14.0099 11.2364 14.3543ZM15.5192 9.76074C15.9119 10.174 16.3047 10.6347 16.6933 11.1384C16.3132 11.1212 15.9246 11.1082 15.5318 11.1082C15.1348 11.1082 14.742 11.1169 14.3577 11.1384C14.7378 10.6347 15.1306 10.174 15.5192 9.76074ZM18.6615 12.2965C19.2613 12.3869 19.8399 12.4988 20.3932 12.6366C20.237 13.1919 20.0427 13.7645 19.823 14.3371C19.6499 13.9927 19.4683 13.6483 19.2697 13.3039C19.0712 12.9595 18.8685 12.6237 18.6615 12.2965ZM15.5403 21.2554C15.1475 20.8421 14.7547 20.3815 14.3661 19.8778C14.7462 19.895 15.1348 19.9079 15.5276 19.9079C15.9246 19.9079 16.3174 19.8993 16.7018 19.8778C16.3216 20.3815 15.9288 20.8421 15.5403 21.2554ZM18.6658 18.7197C18.8727 18.3882 19.0797 18.0481 19.274 17.6994C19.4683 17.355 19.6499 17.0106 19.823 16.6662C20.0511 17.2431 20.2454 17.8199 20.4059 18.3796C19.8526 18.5131 19.2697 18.6293 18.6658 18.7197ZM22.4882 13.3297C23.9833 13.9798 24.9505 14.8322 24.9505 15.5081C24.9505 16.184 23.9833 17.0407 22.4882 17.6865C22.1249 17.8458 21.7279 17.9878 21.3182 18.1213C21.0775 17.2775 20.7607 16.3993 20.3679 15.4995C20.7565 14.604 21.069 13.7301 21.3055 12.8906C21.7237 13.024 22.1207 13.1704 22.4882 13.3297ZM20.2158 7.17767C20.7903 7.51347 21.0394 8.79209 20.8452 10.4366C20.7987 10.8413 20.7227 11.2675 20.6298 11.7024C19.8019 11.4957 18.8981 11.3364 17.9477 11.2331C17.3776 10.4366 16.7862 9.71339 16.1907 9.08053C17.5676 7.77608 18.86 7.06143 19.7386 7.06143C19.9286 7.06573 20.0891 7.10448 20.2158 7.17767ZM10.1974 10.4582C9.99886 8.81362 10.2438 7.53499 10.814 7.19489C10.9407 7.11739 11.1055 7.08295 11.2997 7.08295C12.174 7.08295 13.4707 7.7933 14.8476 9.08914C14.2563 9.722 13.665 10.441 13.1032 11.2374C12.1487 11.3407 11.2448 11.5 10.417 11.711C10.3199 11.2761 10.2438 10.8586 10.1974 10.4582ZM8.57127 13.3297C8.9345 13.1704 9.33152 13.0283 9.74121 12.8949C9.98196 13.7387 10.2987 14.6169 10.6915 15.5167C10.303 16.4122 9.99041 17.2861 9.75389 18.1256C9.33574 17.9921 8.93872 17.8458 8.56704 17.6865C7.07187 17.0364 6.10466 16.184 6.10466 15.5081C6.10889 14.8322 7.0761 13.9755 8.57127 13.3297Z" fill="#4D4D4D"/>
<path d="M15.5317 13.5407C14.4657 13.5407 13.6015 14.4216 13.6015 15.5081C13.6015 16.5947 14.4657 17.4756 15.5317 17.4756C16.5977 17.4756 17.4619 16.5947 17.4619 15.5081C17.4619 14.4216 16.5977 13.5407 15.5317 13.5407Z" fill="#4D4D4D"/>
</svg>
